<?xml version="1.0" encoding="utf-8"?>
<!-- Generator: Adobe Illustrator 26.0.3, SVG Export Plug-In . SVG Version: 6.00 Build 0)  -->
<svg version="1.1" id="Layer_1" xmlns="http://www.w3.org/2000/svg" xmlns:xlink="http://www.w3.org/1999/xlink" x="0px" y="0px"
	 viewBox="0 0 432 432" style="enable-background:new 0 0 432 432;" xml:space="preserve">
<style type="text/css">
	.st0{fill:#D1D3D4;}
</style>
<g id="Group_24" transform="translate(-296 -222)">
	<g transform="matrix(1, 0, 0, 1, 296, 222)">
		<path id="Rectangle_38-2" class="st0" d="M185.86,145.66c-22.19,0.03-40.17,18.01-40.19,40.19v60.29
			c0.03,22.19,18.01,40.17,40.19,40.19h60.29c22.19-0.03,40.17-18.01,40.19-40.19v-60.29c-0.03-22.19-18.01-40.17-40.19-40.19
			H185.86 M185.86,132.27h60.29c29.6,0,53.59,23.99,53.59,53.59v60.29c0,29.6-23.99,53.59-53.59,53.59h-60.29
			c-29.6,0-53.59-23.99-53.59-53.59v-60.29C132.27,156.26,156.26,132.27,185.86,132.27z"/>
	</g>
	<g transform="matrix(1, 0, 0, 1, 296, 222)">
		<path id="Path_9-2" class="st0" d="M216.06,240.36c-1.57,0-3.08-0.55-4.29-1.55l-37.77-31.43c-2.79-2.42-3.09-6.66-0.67-9.45
			c2.36-2.71,6.43-3.09,9.24-0.85l33.49,27.87l33.49-27.87c2.89-2.31,7.11-1.83,9.41,1.06c2.24,2.81,1.87,6.88-0.85,9.24
			l-37.76,31.43C219.16,239.82,217.63,240.36,216.06,240.36z"/>
	</g>
</g>
</svg>
