<?xml version="1.0" encoding="utf-8"?>
<!-- Generator: Adobe Illustrator 26.0.3, SVG Export Plug-In . SVG Version: 6.00 Build 0)  -->
<svg version="1.1" id="Layer_1" xmlns="http://www.w3.org/2000/svg" xmlns:xlink="http://www.w3.org/1999/xlink" x="0px" y="0px"
	 viewBox="0 0 432 432" style="enable-background:new 0 0 432 432;" xml:space="preserve">
<style type="text/css">
	.st0{fill:#FEEA00;}
	.st1{fill:#FFFFFF;}
</style>
<g id="Group_4" transform="translate(9 6)">
	<g transform="matrix(1, 0, 0, 1, -9, -6)">
		<path id="sun-2" class="st0" d="M322.29,206.19h-39.45c-0.75-5.33-2.15-10.55-4.15-15.55l34.12-19.78
			c4.65-2.64,6.28-8.54,3.64-13.19s-8.54-6.28-13.19-3.64c-0.05,0.03-0.1,0.06-0.16,0.09l-34.15,19.8
			c-3.26-4.12-6.99-7.86-11.11-11.13l19.8-34.16c2.52-4.71,0.74-10.58-3.97-13.1c-4.5-2.4-10.09-0.91-12.78,3.42l-19.8,34.1
			c-5-2-10.22-3.4-15.55-4.15v-39.45c-0.13-5.34-4.57-9.57-9.91-9.44c-5.16,0.13-9.31,4.28-9.44,9.44v39.45
			c-5.33,0.75-10.55,2.14-15.55,4.15l-19.78-34.12c-2.86-4.52-8.83-5.86-13.35-3.01c-4.26,2.7-5.74,8.22-3.39,12.68l19.79,34.18
			c-4.12,3.27-7.85,7-11.11,11.13l-34.15-19.8c-4.52-2.86-10.49-1.51-13.35,3.01c-2.86,4.52-1.51,10.49,3.01,13.35
			c0.22,0.14,0.44,0.27,0.67,0.39l34.09,19.78c-2,5-3.39,10.22-4.15,15.55h-39.45c-5.34,0.13-9.57,4.57-9.44,9.91
			c0.13,5.16,4.28,9.31,9.44,9.44h39.45c0.75,5.33,2.15,10.55,4.15,15.55l-34.12,19.78c-4.71,2.52-6.49,8.38-3.97,13.1
			c2.52,4.71,8.38,6.49,13.1,3.97c0.19-0.1,0.37-0.21,0.55-0.32l34.15-19.8c3.26,4.12,6.99,7.86,11.11,11.13
			c-12.76,22.2-14.97,19.59,14.03,4.43c6.02-3.11,2.57-42.6,27.95-57.49c48.21-13.39,43.19,24.77,66.94,9.68h39.45
			c5.34-0.13,9.57-4.57,9.44-9.91c-0.13-5.16-4.28-9.31-9.44-9.44L322.29,206.19z M209.63,210.16
			c-13.23-0.42-17.48,49.36-27.85,40.38c-27.1-22.82-16.59-81.43,34.09-83.04c27.75,0.88,43.44,18.84,47.63,42.66
			C267.75,232.9,244.44,193.79,209.63,210.16L209.63,210.16z"/>
	</g>
	<g transform="matrix(1, 0, 0, 1, -9, -6)">
		<path id="clouds-2" class="st1" d="M284.54,331.95c3.47-0.16,6.91-0.68,10.27-1.53c17.78-4.13,31.67-18.01,35.8-35.8
			c6.09-25.47-9.15-51.17-34.42-58.06c0,0-6.09-1.4-7.41-4.56l0,0c-12.29-29.61-46.25-43.66-75.86-31.38
			c-17.02,7.06-29.68,21.78-34.11,39.67c-2.1,8.66-2.3,17.68-0.58,26.43c-17.18,7.39-25.12,27.3-17.73,44.48
			c4.06,9.45,12.2,16.54,22.12,19.27c2.63,0.79,5.33,1.28,8.07,1.47L284.54,331.95z M271,239.5L271,239.5
			c3.42,8.5,11.12,14.53,20.2,15.8c15.2,4.2,24.33,19.7,20.63,35.03c-2.55,10.51-10.78,18.71-21.3,21.22
			c-2.08,0.48-4.2,0.74-6.33,0.79c-16.11,0.32-80.03,0.37-92.88,0c-1.24-0.04-2.47-0.22-3.67-0.53c-4.82-1.31-8.6-5.06-9.95-9.86
			c-2.07-7.04,1.47-14.51,8.23-17.37c8.7-3.69,13.51-13.08,11.42-22.3c-4.43-20.9,8.93-41.44,29.83-45.87
			c18.25-3.87,36.66,5.84,43.78,23.09L271,239.5z"/>
	</g>
</g>
</svg>
