<?xml version="1.0" encoding="utf-8"?>
<!-- Generator: Adobe Illustrator 26.0.3, SVG Export Plug-In . SVG Version: 6.00 Build 0)  -->
<svg version="1.1" id="Layer_1" xmlns="http://www.w3.org/2000/svg" xmlns:xlink="http://www.w3.org/1999/xlink" x="0px" y="0px"
	 viewBox="0 0 432 432" style="enable-background:new 0 0 432 432;" xml:space="preserve">
<style type="text/css">
	.st0{fill:url(#SVGID_1_);}
</style>
<linearGradient id="SVGID_1_" gradientUnits="userSpaceOnUse" x1="26.3234" y1="224.857" x2="410.9319" y2="224.857">
	<stop  offset="0" style="stop-color:#FEEA00"/>
	<stop  offset="1" style="stop-color:#F3B01C"/>
</linearGradient>
<path class="st0" d="M407.17,221.1H391.8c-0.04-0.04-52.13,0-52.13,0v-0.02H112.95H97.58c-0.29-2.08-0.84-4.11-1.62-6.05l13.28-7.7
	c1.83-0.98,2.52-3.27,1.53-5.1c-0.98-1.83-3.27-2.52-5.1-1.53c-0.07,0.04-0.13,0.07-0.2,0.12l-13.3,7.71
	c-1.27-1.61-2.72-3.06-4.33-4.33l7.71-13.31c1.04-1.8,0.42-4.11-1.38-5.15c-1.8-1.04-4.11-0.42-5.15,1.38l-7.71,13.28
	c-1.95-0.78-3.98-1.32-6.06-1.62v-15.37c0-2.08-1.69-3.77-3.77-3.77c-2.08,0-3.77,1.69-3.77,3.77v15.37
	c-2.08,0.29-4.11,0.84-6.05,1.62L54,187.11c-1.1-1.77-3.42-2.31-5.18-1.22c-1.69,1.05-2.28,3.23-1.33,4.99l7.71,13.31
	c-1.6,1.27-3.06,2.73-4.33,4.33l-13.3-7.71c-1.77-1.1-4.09-0.55-5.18,1.22s-0.55,4.09,1.22,5.18c0.07,0.04,0.13,0.08,0.2,0.12
	l13.27,7.7c-0.78,1.95-1.32,3.98-1.62,6.06H30.09c-2.08,0-3.77,1.69-3.76,3.77c0,2.08,1.69,3.76,3.76,3.76h15.37
	c0.04,0.04,52.13,0,52.13,0h15.37h211.15c0.07,0,0.13,0.02,0.2,0.02h15.37c0.29,2.08,0.84,4.11,1.62,6.05l-13.28,7.7
	c-1.83,0.99-2.52,3.27-1.53,5.1s3.27,2.52,5.1,1.53c0.07-0.04,0.13-0.07,0.2-0.12l13.3-7.71c1.27,1.61,2.72,3.06,4.33,4.33
	l-7.71,13.31c-1.04,1.8-0.42,4.11,1.38,5.15s4.11,0.42,5.15-1.38l7.71-13.28c1.95,0.78,3.98,1.32,6.06,1.62v15.37
	c0,2.08,1.69,3.77,3.77,3.77c2.08,0,3.77-1.69,3.77-3.77v-15.37c2.08-0.29,4.11-0.84,6.05-1.62l7.69,13.28
	c1.1,1.77,3.42,2.31,5.18,1.22c1.69-1.05,2.28-3.23,1.33-4.99l-7.71-13.31c1.6-1.27,3.06-2.73,4.33-4.33l13.3,7.71
	c1.77,1.1,4.09,0.55,5.18-1.22s0.55-4.09-1.22-5.18c-0.07-0.04-0.13-0.08-0.2-0.12l-13.27-7.7c0.78-1.95,1.32-3.98,1.62-6.06h15.37
	c2.08,0,3.77-1.69,3.76-3.77C410.93,222.79,409.25,221.1,407.17,221.1z M53.21,221.08c1.24-7.55,7.37-14.72,18.31-15.07
	c10.43,0.33,16.49,6.86,18.27,14.84C89.81,220.81,53.35,221.13,53.21,221.08z M365.73,243.7c-10.43-0.33-16.49-6.86-18.27-14.84
	c-0.02,0.05,36.44-0.28,36.58-0.23C382.81,236.18,376.68,243.35,365.73,243.7z"/>
</svg>
