<?xml version="1.0" encoding="utf-8"?>
<!-- Generator: Adobe Illustrator 26.0.3, SVG Export Plug-In . SVG Version: 6.00 Build 0)  -->
<svg version="1.1" id="Layer_1" xmlns="http://www.w3.org/2000/svg" xmlns:xlink="http://www.w3.org/1999/xlink" x="0px" y="0px"
	 viewBox="0 0 432 432" style="enable-background:new 0 0 432 432;" xml:space="preserve">
<style type="text/css">
	.st0{fill:#D1D3D4;}
</style>
<g id="Group_24" transform="translate(-296 -222)">
	<g transform="matrix(1, 0, 0, 1, 296, 222)">
		<path id="Rectangle_38-2" class="st0" d="M246.14,286.34c22.19-0.03,40.17-18.01,40.19-40.19v-60.29
			c-0.03-22.19-18.01-40.17-40.19-40.19h-60.29c-22.19,0.03-40.17,18.01-40.19,40.19v60.29c0.03,22.19,18.01,40.17,40.19,40.19
			H246.14 M246.14,299.73h-60.29c-29.6,0-53.59-23.99-53.59-53.59v-60.29c0-29.6,23.99-53.59,53.59-53.59h60.29
			c29.6,0,53.59,23.99,53.59,53.59v60.29C299.73,275.74,275.74,299.73,246.14,299.73z"/>
	</g>
	<g transform="matrix(1, 0, 0, 1, 296, 222)">
		<path id="Path_9-2" class="st0" d="M215.94,191.64c1.57,0,3.08,0.55,4.29,1.55l37.77,31.43c2.79,2.42,3.09,6.66,0.67,9.45
			c-2.36,2.71-6.43,3.09-9.24,0.85l-33.49-27.87l-33.49,27.87c-2.89,2.31-7.11,1.83-9.41-1.06c-2.24-2.81-1.87-6.88,0.85-9.24
			l37.76-31.43C212.84,192.18,214.37,191.64,215.94,191.64z"/>
	</g>
</g>
</svg>
